<?xml version="1.0" encoding="utf-8"?>
<!-- Generator: Adobe Illustrator 19.0.0, SVG Export Plug-In . SVG Version: 6.00 Build 0)  -->
<svg version="1.1" xmlns="http://www.w3.org/2000/svg" xmlns:xlink="http://www.w3.org/1999/xlink" x="0px" y="0px"
	 viewBox="0 0 32 32" style="enable-background:new 0 0 32 32;" xml:space="preserve">
<style type="text/css">
	.st0{fill:#76AA41;}
</style>
<g id="Layer_1">
	<path id="XMLID_1_" d="M28.3,32H3.7C1.7,32,0,30.3,0,28.3V9.4c0-2.1,1.7-3.7,3.7-3.7h24.5c2.1,0,3.7,1.7,3.7,3.7v18.8
		C32,30.3,30.3,32,28.3,32z"/>
</g>
<g id="Layer_2">
	<path id="XMLID_2_" d="M7.7,16.3L0.9,10C0.1,9.3,0.1,8.1,0.8,7.3l5.8-6.2c0.7-0.8,1.9-0.8,2.6-0.1L16,7.4c0.8,0.7,0.8,1.9,0.1,2.6
		l-5.8,6.2C9.7,17,8.5,17,7.7,16.3z"/>
	<path id="XMLID_4_" d="M23,16.3L16.1,10c-0.8-0.7-0.8-1.9-0.1-2.6l5.8-6.2c0.7-0.8,1.9-0.8,2.6-0.1l6.8,6.4
		c0.8,0.7,0.8,1.9,0.1,2.6l-5.8,6.2C24.9,17,23.7,17,23,16.3z"/>
</g>
<g id="Layer_3">
	<circle id="XMLID_3_" class="st0" cx="8.5" cy="18.8" r="5.6"/>
	<circle id="XMLID_6_" class="st0" cx="23.7" cy="18.8" r="5.6"/>
</g>
<g id="Layer_4">
	<ellipse id="XMLID_5_" cx="8.5" cy="18.8" rx="1" ry="5.6"/>
	<ellipse id="XMLID_8_" cx="23.7" cy="18.8" rx="1" ry="5.6"/>
</g>
<g id="Layer_5">
</g>
</svg>
